name Run_20002_IK.mot
datacolumns 164
datarows 4
range 0.58 0.61
endheader
time	         pelvis_tilt	         pelvis_list	     pelvis_rotation	           pelvis_tx	           pelvis_ty	           pelvis_tz	       hip_flexion_r	     hip_adduction_r	      hip_rotation_r	        knee_angle_r	       ankle_angle_r	       hip_flexion_l	     hip_adduction_l	      hip_rotation_l	        knee_angle_l	       ankle_angle_l	    lumbar_extension	      lumbar_bending	     lumbar_rotation	          arm_flex_r	           arm_add_r	           arm_rot_r	        elbow_flex_r	           pro_sup_r	          arm_flex_l	           arm_add_l	           arm_rot_l	        elbow_flex_l	           pro_sup_l	    subtalar_angle_r	         mtp_angle_r	    subtalar_angle_l	         mtp_angle_l	        wrist_flex_r	         wrist_dev_r	        wrist_flex_l	         wrist_dev_l	             LASI_tx	             LASI_ty	             LASI_tz	             RASI_tx	             RASI_ty	             RASI_tz	             LPSI_tx	             LPSI_ty	             LPSI_tz	             RPSI_tx	             RPSI_ty	             RPSI_tz	             RTH1_tx	             RTH1_ty	             RTH1_tz	             RTH2_tx	             RTH2_ty	             RTH2_tz	             RTH3_tx	             RTH3_ty	             RTH3_tz	             LTH1_tx	             LTH1_ty	             LTH1_tz	             LTH2_tx	             LTH2_ty	             LTH2_tz	             LTH3_tx	             LTH3_ty	             LTH3_tz	             RTB1_tx	             RTB1_ty	             RTB1_tz	             RTB2_tx	             RTB2_ty	             RTB2_tz	             RTB3_tx	             RTB3_ty	             RTB3_tz	             LTB1_tx	             LTB1_ty	             LTB1_tz	             LTB2_tx	             LTB2_ty	             LTB2_tz	             LTB3_tx	             LTB3_ty	             LTB3_tz	             RCAL_tx	             RCAL_ty	             RCAL_tz	             RTOE_tx	             RTOE_ty	             RTOE_tz	             RMT5_tx	             RMT5_ty	             RMT5_tz	             LCAL_tx	             LCAL_ty	             LCAL_tz	             LTOE_tx	             LTOE_ty	             LTOE_tz	             LMT5_tx	             LMT5_ty	             LMT5_tz	             LACR_tx	             LACR_ty	             LACR_tz	             RACR_tx	             RACR_ty	             RACR_tz	             CLAV_tx	             CLAV_ty	             CLAV_tz	               C7_tx	               C7_ty	               C7_tz	             RUA1_tx	             RUA1_ty	             RUA1_tz	             RUA2_tx	             RUA2_ty	             RUA2_tz	             RUA3_tx	             RUA3_ty	             RUA3_tz	             RLEL_tx	             RLEL_ty	             RLEL_tz	             RMEL_tx	             RMEL_ty	             RMEL_tz	             LUA1_tx	             LUA1_ty	             LUA1_tz	             LUA2_tx	             LUA2_ty	             LUA2_tz	             LUA3_tx	             LUA3_ty	             LUA3_tz	             LLEL_tx	             LLEL_ty	             LLEL_tz	             LMEL_tx	             LMEL_ty	             LMEL_tz	      RFAsuperior_tx	      RFAsuperior_ty	      RFAsuperior_tz	        RFAradius_tx	        RFAradius_ty	        RFAradius_tz	          RFAulna_tx	          RFAulna_ty	          RFAulna_tz	      LFAsuperior_tx	      LFAsuperior_ty	      LFAsuperior_tz	        LFAradius_tx	        LFAradius_ty	        LFAradius_tz	          LFAulna_tx	          LFAulna_ty	          LFAulna_tz	
0.58	        -12.65949937	          0.20994188	         -2.89848930	          1.05786172	          1.05142403	         -0.35351694	          5.98853224	          2.17706243	          2.59250934	        -37.59852717	        -14.41406021	         30.36767804	          2.89831894	         -0.00837396	        -10.74544810	          5.41607289	         -0.63305288	          0.57457405	         11.43018712	        -17.57624850	        -19.78843359	         -5.07890586	        117.09300690	        112.95846541	        -45.35081323	        -10.71065888	        -14.52582883	        113.36168259	        104.20667667	          0.00000000	          0.00000000	          0.00000000	          0.00000000	          0.00000000	          0.00000000	          0.00000000	          0.00000000	          1.09526115	          1.08352455	         -0.47712262	          1.07259952	          1.09613218	         -0.23364246	          0.91063527	          1.15326375	         -0.41563070	          0.91080793	          1.14839949	         -0.30297197	          0.98419870	          0.96943093	         -0.18474795	          0.91191582	          0.82958038	         -0.20331153	          0.92925350	          0.67456709	         -0.21826332	          1.03073778	          0.96855116	         -0.53814750	          0.99861691	          0.80409699	         -0.48928857	          1.08331440	          0.68735535	         -0.48610704	          0.86230370	          0.42377646	         -0.28965335	          0.77415439	          0.43720347	         -0.21994555	          0.71611042	          0.30040309	         -0.29886998	          1.18491711	          0.48102955	         -0.41791190	          1.11433160	          0.36255611	         -0.46811308	          1.18301371	          0.26443415	         -0.40462307	          0.55526924	          0.30167565	         -0.29012908	          0.67280230	          0.09484786	         -0.34099525	          0.62777177	          0.10724478	         -0.24501946	          1.08112532	          0.10464229	         -0.37691237	          1.31187287	          0.15490351	         -0.36180364	          1.28362969	          0.08419800	         -0.44252039	          1.04834119	          1.58390530	         -0.51256302	          1.09989821	          1.55629173	         -0.19884411	          1.13577744	          1.52076390	         -0.33487372	          1.01972949	          1.60154046	         -0.34813682	          1.00863457	          1.45973273	         -0.11812224	          1.05662465	          1.39810064	         -0.10448213	          1.00514050	          1.31843082	         -0.05274021	          0.98337850	          1.25411604	         -0.02642881	          0.96199623	          1.23296736	         -0.11228707	          0.91968842	          1.53338948	         -0.54830167	          0.91630595	          1.45203154	         -0.57946954	          0.82290155	          1.41780521	         -0.58224338	          0.77958725	          1.36196950	         -0.59513492	          0.78277173	          1.33804452	         -0.50901984	          1.08095352	          1.22369303	         -0.06223297	          1.19913135	          1.23458667	         -0.19629561	          1.20922709	          1.17960107	         -0.15437495	          0.82346117	          1.29181314	         -0.61005933	          0.99916702	          1.22730328	         -0.56890866	          0.96197227	          1.17543618	         -0.60278505	
0.59	        -12.71978907	          0.03075336	         -2.82099212	          1.05804319	          1.04665229	         -0.35405170	          7.11801997	          2.49374048	          3.28308684	        -41.20043228	        -13.86171679	         30.27030115	          2.86513004	          0.31172571	        -11.25611739	          5.79037874	         -0.33774161	          0.72222312	         11.05466169	        -18.06156390	        -19.58809592	         -5.25014024	        116.05056318	        112.87404369	        -44.94302968	        -10.41317382	        -14.73779874	        113.46471589	        104.22157185	          0.00000000	          0.00000000	          0.00000000	          0.00000000	          0.00000000	          0.00000000	          0.00000000	          0.00000000	          1.09555379	          1.07860160	         -0.47830096	          1.07282293	          1.09131002	         -0.23484435	          0.91096592	          1.14849579	         -0.41638057	          0.91092170	          1.14371253	         -0.30370747	          0.98644687	          0.96466730	         -0.18537879	          0.91653280	          0.82355021	         -0.20321020	          0.93689104	          0.66877131	         -0.21792976	          1.03080081	          0.96352828	         -0.53812414	          0.99815599	          0.79938415	         -0.48928275	          1.08286618	          0.68242909	         -0.48566352	          0.86527446	          0.42077490	         -0.28886758	          0.77874871	          0.43779099	         -0.21782684	          0.71355246	          0.30418247	         -0.29659774	          1.18247115	          0.47515583	         -0.41707160	          1.11114153	          0.35731318	         -0.46778630	          1.17829329	          0.25848052	         -0.40394934	          0.55221037	          0.31162824	         -0.28519314	          0.66271873	          0.10192400	         -0.34012424	          0.61835010	          0.11377515	         -0.24402564	          1.07463540	          0.09941693	         -0.37671966	          1.30573239	          0.14866235	         -0.36127563	          1.27715733	          0.07754838	         -0.44172854	          1.04735406	          1.57892578	         -0.51359447	          1.09795424	          1.55229892	         -0.19971486	          1.13472616	          1.51702179	         -0.33528089	          1.01853759	          1.59708768	         -0.34965086	          1.00565324	          1.45623179	         -0.11956051	          1.05352988	          1.39447273	         -0.10523266	          1.00147773	          1.31482078	         -0.05416861	          0.97893538	          1.25086233	         -0.02773873	          0.95817423	          1.22973356	         -0.11375643	          0.91901914	          1.52736755	         -0.54973891	          0.91664084	          1.44555807	         -0.58035740	          0.82369312	          1.41022735	         -0.58312734	          0.78104168	          1.35386443	         -0.59591340	          0.78453973	          1.33007570	         -0.50968231	          1.07638621	          1.21829444	         -0.06231062	          1.19665013	          1.22569342	         -0.19492140	          1.20475535	          1.17089748	         -0.15225574	          0.82581705	          1.28434223	         -0.61079467	          1.00250579	          1.22245047	         -0.56968480	          0.96598562	          1.17004114	         -0.60357084	
0.6	        -12.79052512	         -0.17538119	         -2.71445361	          1.05823614	          1.04088384	         -0.35456155	          8.36801891	          2.85670548	          3.82200681	        -44.96020285	        -12.80707948	         30.25373931	          2.78161873	          0.54145961	        -12.33322950	          5.49932123	         -0.01141336	          0.90562996	         10.60748427	        -18.61909673	        -19.36392884	         -5.49426169	        114.82836564	        112.82790353	        -44.42700459	        -10.18220809	        -14.86155571	        113.49027900	        104.20181160	          0.00000000	          0.00000000	          0.00000000	          0.00000000	          0.00000000	          0.00000000	          0.00000000	          0.00000000	          1.09596180	          1.07264825	         -0.47947611	          1.07316175	          1.08545754	         -0.23604303	          0.91131157	          1.14249508	         -0.41692918	          0.91115320	          1.13799427	         -0.30444590	          0.98855315	          0.95892555	         -0.18591492	          0.92134856	          0.81673453	         -0.20311653	          0.94492834	          0.66214490	         -0.21758455	          1.03034553	          0.95749401	         -0.53826098	          0.99781101	          0.79362581	         -0.48918022	          1.08292783	          0.67684293	         -0.48504843	          0.86918410	          0.41728056	         -0.28782609	          0.78425823	          0.43811334	         -0.21566377	          0.71230146	          0.30783351	         -0.29424267	          1.17926013	          0.46766346	         -0.41671790	          1.10644816	          0.35116700	         -0.46827902	          1.17137397	          0.25109069	         -0.40419976	          0.55006567	          0.32115571	         -0.27996114	          0.65486583	          0.10992616	         -0.33949627	          0.61138228	          0.12086609	         -0.24289437	          1.06486463	          0.09521302	         -0.37715407	          1.29664932	          0.13862322	         -0.36099700	          1.26673468	          0.06720613	         -0.44114856	          1.04642313	          1.57302193	         -0.51481100	          1.09578095	          1.54723689	         -0.20045504	          1.13350193	          1.51222061	         -0.33571359	          1.01723140	          1.59166289	         -0.35116637	          1.00244180	          1.45162620	         -0.12091286	          1.05001125	          1.38967937	         -0.10607460	          0.99723326	          1.31012936	         -0.05565029	          0.97376241	          1.24666095	         -0.02905363	          0.95368491	          1.22550806	         -0.11523847	          0.91849025	          1.51992974	         -0.55148279	          0.91725495	          1.43771489	         -0.58148642	          0.82485435	          1.40112623	         -0.58442104	          0.78297800	          1.34422358	         -0.59721611	          0.78663190	          1.32065956	         -0.51090812	          1.07101155	          1.21162179	         -0.06183407	          1.19365531	          1.21497923	         -0.19294660	          1.19952067	          1.16055413	         -0.14942263	          0.82876479	          1.27539628	         -0.61181234	          1.00636444	          1.21629317	         -0.57044127	          0.97070048	          1.16333341	         -0.60431047	
0.61	        -12.82822052	         -0.36884382	         -2.61468793	          1.05854867	          1.03416479	         -0.35496680	          9.67297075	          3.16270770	          4.12883085	        -48.79089750	        -11.46672503	         30.22725671	          2.66536412	          0.34877904	        -13.78123587	          4.30698243	          0.31038261	          1.06823085	         10.09937260	        -19.23095820	        -19.12079333	         -5.75723976	        113.44145448	        112.84250423	        -43.83382607	        -10.01003035	        -14.94437933	        113.45640643	        104.11358312	          0.00000000	          0.00000000	          0.00000000	          0.00000000	          0.00000000	          0.00000000	          0.00000000	          0.00000000	          1.09644678	          1.06564131	         -0.48049683	          1.07357756	          1.07855151	         -0.23708729	          0.91175664	          1.13525702	         -0.41734331	          0.91146142	          1.13122316	         -0.30502780	          0.99056293	          0.95234375	         -0.18629890	          0.92615148	          0.80921750	         -0.20280998	          0.95308281	          0.65480180	         -0.21692163	          1.02980723	          0.95033528	         -0.53829587	          0.99732290	          0.78662338	         -0.48915321	          1.08279630	          0.67017023	         -0.48478866	          0.87406163	          0.41320680	         -0.28635444	          0.79058000	          0.43810467	         -0.21346143	          0.71239088	          0.31108431	         -0.29160666	          1.17534374	          0.45852632	         -0.41726647	          1.10003933	          0.34375075	         -0.46889955	          1.16293745	          0.24230319	         -0.40485642	          0.54921077	          0.33008018	         -0.27471398	          0.64921050	          0.11804130	         -0.33873643	          0.60671882	          0.12797071	         -0.24150219	          1.05279814	          0.09295457	         -0.37696217	          1.28553891	          0.12403764	         -0.36062101	          1.25278492	          0.05439419	         -0.44116335	          1.04556639	          1.56616675	         -0.51629044	          1.09341689	          1.54114211	         -0.20108197	          1.13209331	          1.50633631	         -0.33620042	          1.01575185	          1.58521657	         -0.35264261	          0.99890359	          1.44595801	         -0.12227314	          1.04599738	          1.38384253	         -0.10692237	          0.99237332	          1.30446581	         -0.05714409	          0.96788321	          1.24157482	         -0.03036544	          0.94850938	          1.22030452	         -0.11662489	          0.91815451	          1.51111841	         -0.55357981	          0.91824898	          1.42858817	         -0.58293377	          0.82640237	          1.39057308	         -0.58612572	          0.78539473	          1.33311771	         -0.59902277	          0.78914485	          1.30982701	         -0.51258955	          1.06485851	          1.20382439	         -0.06107233	          1.19003057	          1.20254984	         -0.19043526	          1.19344306	          1.14871566	         -0.14596176	          0.83232009	          1.26503821	         -0.61322595	          1.01076446	          1.20886242	         -0.57124301	          0.97609938	          1.15538631	         -0.60503160	
